<svg width="347" height="41" viewBox="0 0 347 41" fill="none" xmlns="http://www.w3.org/2000/svg">
<path d="M58.5434 11.046V30H53.9264V11.046H58.5434ZM71.0693 14.772C72.8333 14.772 74.2373 15.348 75.2813 16.5C76.3433 17.634 76.8743 19.2 76.8743 21.198V30H72.2843V21.819C72.2843 20.811 72.0233 20.028 71.5013 19.47C70.9793 18.912 70.2773 18.633 69.3953 18.633C68.5133 18.633 67.8113 18.912 67.2893 19.47C66.7673 20.028 66.5063 20.811 66.5063 21.819V30H61.8893V14.934H66.5063V16.932C66.9743 16.266 67.6043 15.744 68.3963 15.366C69.1883 14.97 70.0793 14.772 71.0693 14.772ZM87.6427 18.768H85.1587V30H80.5417V18.768H78.8677V14.934H80.5417V14.502C80.5417 12.648 81.0727 11.244 82.1347 10.29C83.1967 9.318 84.7537 8.832 86.8057 8.832C87.1477 8.832 87.3997 8.841 87.5617 8.859V12.774C86.6797 12.72 86.0587 12.846 85.6987 13.152C85.3387 13.458 85.1587 14.007 85.1587 14.799V14.934H87.6427V18.768ZM96.6702 30.216C95.1942 30.216 93.8622 29.901 92.6742 29.271C91.5042 28.641 90.5772 27.741 89.8932 26.571C89.2272 25.401 88.8942 24.033 88.8942 22.467C88.8942 20.919 89.2362 19.56 89.9202 18.39C90.6042 17.202 91.5402 16.293 92.7282 15.663C93.9162 15.033 95.2482 14.718 96.7242 14.718C98.2002 14.718 99.5322 15.033 100.72 15.663C101.908 16.293 102.844 17.202 103.528 18.39C104.212 19.56 104.554 20.919 104.554 22.467C104.554 24.015 104.203 25.383 103.501 26.571C102.817 27.741 101.872 28.641 100.666 29.271C99.4782 29.901 98.1462 30.216 96.6702 30.216ZM96.6702 26.22C97.5522 26.22 98.2992 25.896 98.9112 25.248C99.5412 24.6 99.8562 23.673 99.8562 22.467C99.8562 21.261 99.5502 20.334 98.9382 19.686C98.3442 19.038 97.6062 18.714 96.7242 18.714C95.8242 18.714 95.0772 19.038 94.4832 19.686C93.8892 20.316 93.5922 21.243 93.5922 22.467C93.5922 23.673 93.8802 24.6 94.4562 25.248C95.0502 25.896 95.7882 26.22 96.6702 26.22ZM111.621 17.445C112.161 16.617 112.836 15.969 113.646 15.501C114.456 15.015 115.356 14.772 116.346 14.772V19.659H115.077C113.925 19.659 113.061 19.911 112.485 20.415C111.909 20.901 111.621 21.765 111.621 23.007V30H107.004V14.934H111.621V17.445ZM137.776 14.772C139.648 14.772 141.133 15.339 142.231 16.473C143.347 17.607 143.905 19.182 143.905 21.198V30H139.315V21.819C139.315 20.847 139.054 20.1 138.532 19.578C138.028 19.038 137.326 18.768 136.426 18.768C135.526 18.768 134.815 19.038 134.293 19.578C133.789 20.1 133.537 20.847 133.537 21.819V30H128.947V21.819C128.947 20.847 128.686 20.1 128.164 19.578C127.66 19.038 126.958 18.768 126.058 18.768C125.158 18.768 124.447 19.038 123.925 19.578C123.421 20.1 123.169 20.847 123.169 21.819V30H118.552V14.934H123.169V16.824C123.637 16.194 124.249 15.699 125.005 15.339C125.761 14.961 126.616 14.772 127.57 14.772C128.704 14.772 129.712 15.015 130.594 15.501C131.494 15.987 132.196 16.68 132.7 17.58C133.222 16.752 133.933 16.077 134.833 15.555C135.733 15.033 136.714 14.772 137.776 14.772ZM146.216 22.44C146.216 20.892 146.504 19.533 147.08 18.363C147.674 17.193 148.475 16.293 149.483 15.663C150.491 15.033 151.616 14.718 152.858 14.718C153.92 14.718 154.847 14.934 155.639 15.366C156.449 15.798 157.07 16.365 157.502 17.067V14.934H162.119V30H157.502V27.867C157.052 28.569 156.422 29.136 155.612 29.568C154.82 30 153.893 30.216 152.831 30.216C151.607 30.216 150.491 29.901 149.483 29.271C148.475 28.623 147.674 27.714 147.08 26.544C146.504 25.356 146.216 23.988 146.216 22.44ZM157.502 22.467C157.502 21.315 157.178 20.406 156.53 19.74C155.9 19.074 155.126 18.741 154.208 18.741C153.29 18.741 152.507 19.074 151.859 19.74C151.229 20.388 150.914 21.288 150.914 22.44C150.914 23.592 151.229 24.51 151.859 25.194C152.507 25.86 153.29 26.193 154.208 26.193C155.126 26.193 155.9 25.86 156.53 25.194C157.178 24.528 157.502 23.619 157.502 22.467ZM171.589 30.216C170.275 30.216 169.105 29.991 168.079 29.541C167.053 29.091 166.243 28.479 165.649 27.705C165.055 26.913 164.722 26.031 164.65 25.059H169.213C169.267 25.581 169.51 26.004 169.942 26.328C170.374 26.652 170.905 26.814 171.535 26.814C172.111 26.814 172.552 26.706 172.858 26.49C173.182 26.256 173.344 25.959 173.344 25.599C173.344 25.167 173.119 24.852 172.669 24.654C172.219 24.438 171.49 24.204 170.482 23.952C169.402 23.7 168.502 23.439 167.782 23.169C167.062 22.881 166.441 22.44 165.919 21.846C165.397 21.234 165.136 20.415 165.136 19.389C165.136 18.525 165.37 17.742 165.838 17.04C166.324 16.32 167.026 15.753 167.944 15.339C168.88 14.925 169.987 14.718 171.265 14.718C173.155 14.718 174.64 15.186 175.72 16.122C176.818 17.058 177.448 18.3 177.61 19.848H173.344C173.272 19.326 173.038 18.912 172.642 18.606C172.264 18.3 171.76 18.147 171.13 18.147C170.59 18.147 170.176 18.255 169.888 18.471C169.6 18.669 169.456 18.948 169.456 19.308C169.456 19.74 169.681 20.064 170.131 20.28C170.599 20.496 171.319 20.712 172.291 20.928C173.407 21.216 174.316 21.504 175.018 21.792C175.72 22.062 176.332 22.512 176.854 23.142C177.394 23.754 177.673 24.582 177.691 25.626C177.691 26.508 177.439 27.3 176.935 28.002C176.449 28.686 175.738 29.226 174.802 29.622C173.884 30.018 172.813 30.216 171.589 30.216ZM182.837 13.368C182.027 13.368 181.361 13.134 180.839 12.666C180.335 12.18 180.083 11.586 180.083 10.884C180.083 10.164 180.335 9.57 180.839 9.102C181.361 8.616 182.027 8.373 182.837 8.373C183.629 8.373 184.277 8.616 184.781 9.102C185.303 9.57 185.564 10.164 185.564 10.884C185.564 11.586 185.303 12.18 184.781 12.666C184.277 13.134 183.629 13.368 182.837 13.368ZM185.132 14.934V30H180.515V14.934H185.132ZM207.835 11.046V14.745H202.813V30H198.196V14.745H193.174V11.046H207.835ZM209.234 22.44C209.234 20.892 209.522 19.533 210.098 18.363C210.692 17.193 211.493 16.293 212.501 15.663C213.509 15.033 214.634 14.718 215.876 14.718C216.938 14.718 217.865 14.934 218.657 15.366C219.467 15.798 220.088 16.365 220.52 17.067V14.934H225.137V30H220.52V27.867C220.07 28.569 219.44 29.136 218.63 29.568C217.838 30 216.911 30.216 215.849 30.216C214.625 30.216 213.509 29.901 212.501 29.271C211.493 28.623 210.692 27.714 210.098 26.544C209.522 25.356 209.234 23.988 209.234 22.44ZM220.52 22.467C220.52 21.315 220.196 20.406 219.548 19.74C218.918 19.074 218.144 18.741 217.226 18.741C216.308 18.741 215.525 19.074 214.877 19.74C214.247 20.388 213.932 21.288 213.932 22.44C213.932 23.592 214.247 24.51 214.877 25.194C215.525 25.86 216.308 26.193 217.226 26.193C218.144 26.193 218.918 25.86 219.548 25.194C220.196 24.528 220.52 23.619 220.52 22.467ZM247.701 14.772C249.573 14.772 251.058 15.339 252.156 16.473C253.272 17.607 253.83 19.182 253.83 21.198V30H249.24V21.819C249.24 20.847 248.979 20.1 248.457 19.578C247.953 19.038 247.251 18.768 246.351 18.768C245.451 18.768 244.74 19.038 244.218 19.578C243.714 20.1 243.462 20.847 243.462 21.819V30H238.872V21.819C238.872 20.847 238.611 20.1 238.089 19.578C237.585 19.038 236.883 18.768 235.983 18.768C235.083 18.768 234.372 19.038 233.85 19.578C233.346 20.1 233.094 20.847 233.094 21.819V30H228.477V14.934H233.094V16.824C233.562 16.194 234.174 15.699 234.93 15.339C235.686 14.961 236.541 14.772 237.495 14.772C238.629 14.772 239.637 15.015 240.519 15.501C241.419 15.987 242.121 16.68 242.625 17.58C243.147 16.752 243.858 16.077 244.758 15.555C245.658 15.033 246.639 14.772 247.701 14.772ZM261.676 17.067C262.108 16.365 262.729 15.798 263.539 15.366C264.349 14.934 265.276 14.718 266.32 14.718C267.562 14.718 268.687 15.033 269.695 15.663C270.703 16.293 271.495 17.193 272.071 18.363C272.665 19.533 272.962 20.892 272.962 22.44C272.962 23.988 272.665 25.356 272.071 26.544C271.495 27.714 270.703 28.623 269.695 29.271C268.687 29.901 267.562 30.216 266.32 30.216C265.258 30.216 264.331 30.009 263.539 29.595C262.747 29.163 262.126 28.596 261.676 27.894V30H257.059V10.02H261.676V17.067ZM268.264 22.44C268.264 21.288 267.94 20.388 267.292 19.74C266.662 19.074 265.879 18.741 264.943 18.741C264.025 18.741 263.242 19.074 262.594 19.74C261.964 20.406 261.649 21.315 261.649 22.467C261.649 23.619 261.964 24.528 262.594 25.194C263.242 25.86 264.025 26.193 264.943 26.193C265.861 26.193 266.644 25.86 267.292 25.194C267.94 24.51 268.264 23.592 268.264 22.44ZM274.466 22.44C274.466 20.892 274.754 19.533 275.33 18.363C275.924 17.193 276.725 16.293 277.733 15.663C278.741 15.033 279.866 14.718 281.108 14.718C282.17 14.718 283.097 14.934 283.889 15.366C284.699 15.798 285.32 16.365 285.752 17.067V14.934H290.369V30H285.752V27.867C285.302 28.569 284.672 29.136 283.862 29.568C283.07 30 282.143 30.216 281.081 30.216C279.857 30.216 278.741 29.901 277.733 29.271C276.725 28.623 275.924 27.714 275.33 26.544C274.754 25.356 274.466 23.988 274.466 22.44ZM285.752 22.467C285.752 21.315 285.428 20.406 284.78 19.74C284.15 19.074 283.376 18.741 282.458 18.741C281.54 18.741 280.757 19.074 280.109 19.74C279.479 20.388 279.164 21.288 279.164 22.44C279.164 23.592 279.479 24.51 280.109 25.194C280.757 25.86 281.54 26.193 282.458 26.193C283.376 26.193 284.15 25.86 284.78 25.194C285.428 24.528 285.752 23.619 285.752 22.467ZM302.971 14.772C304.699 14.772 306.085 15.348 307.129 16.5C308.173 17.634 308.695 19.2 308.695 21.198V30H304.105V21.819C304.105 20.811 303.844 20.028 303.322 19.47C302.8 18.912 302.098 18.633 301.216 18.633C300.334 18.633 299.632 18.912 299.11 19.47C298.588 20.028 298.327 20.811 298.327 21.819V30H293.71V10.02H298.327V16.959C298.795 16.293 299.434 15.762 300.244 15.366C301.054 14.97 301.963 14.772 302.971 14.772ZM310.985 22.44C310.985 20.892 311.273 19.533 311.849 18.363C312.443 17.193 313.244 16.293 314.252 15.663C315.26 15.033 316.385 14.718 317.627 14.718C318.689 14.718 319.616 14.934 320.408 15.366C321.218 15.798 321.839 16.365 322.271 17.067V14.934H326.888V30H322.271V27.867C321.821 28.569 321.191 29.136 320.381 29.568C319.589 30 318.662 30.216 317.6 30.216C316.376 30.216 315.26 29.901 314.252 29.271C313.244 28.623 312.443 27.714 311.849 26.544C311.273 25.356 310.985 23.988 310.985 22.44ZM322.271 22.467C322.271 21.315 321.947 20.406 321.299 19.74C320.669 19.074 319.895 18.741 318.977 18.741C318.059 18.741 317.276 19.074 316.628 19.74C315.998 20.388 315.683 21.288 315.683 22.44C315.683 23.592 315.998 24.51 316.628 25.194C317.276 25.86 318.059 26.193 318.977 26.193C319.895 26.193 320.669 25.86 321.299 25.194C321.947 24.528 322.271 23.619 322.271 22.467ZM339.408 14.772C341.172 14.772 342.576 15.348 343.62 16.5C344.682 17.634 345.213 19.2 345.213 21.198V30H340.623V21.819C340.623 20.811 340.362 20.028 339.84 19.47C339.318 18.912 338.616 18.633 337.734 18.633C336.852 18.633 336.15 18.912 335.628 19.47C335.106 20.028 334.845 20.811 334.845 21.819V30H330.228V14.934H334.845V16.932C335.313 16.266 335.943 15.744 336.735 15.366C337.527 14.97 338.418 14.772 339.408 14.772Z" fill="#262626"/>
<path d="M18.3335 29.3333H21.6668V19.3333H18.3335V29.3333ZM20.0002 16C20.4724 16 20.8685 15.84 21.1885 15.52C21.5074 15.2011 21.6668 14.8056 21.6668 14.3333C21.6668 13.8611 21.5074 13.465 21.1885 13.145C20.8685 12.8261 20.4724 12.6667 20.0002 12.6667C19.5279 12.6667 19.1324 12.8261 18.8135 13.145C18.4935 13.465 18.3335 13.8611 18.3335 14.3333C18.3335 14.8056 18.4935 15.2011 18.8135 15.52C19.1324 15.84 19.5279 16 20.0002 16ZM20.0002 37.6667C17.6946 37.6667 15.5279 37.2289 13.5002 36.3533C11.4724 35.4789 9.7085 34.2917 8.2085 32.7917C6.7085 31.2917 5.52127 29.5278 4.64683 27.5C3.77127 25.4722 3.3335 23.3056 3.3335 21C3.3335 18.6945 3.77127 16.5278 4.64683 14.5C5.52127 12.4722 6.7085 10.7083 8.2085 9.20834C9.7085 7.70834 11.4724 6.52057 13.5002 5.64501C15.5279 4.77057 17.6946 4.33334 20.0002 4.33334C22.3057 4.33334 24.4724 4.77057 26.5002 5.64501C28.5279 6.52057 30.2918 7.70834 31.7918 9.20834C33.2918 10.7083 34.4791 12.4722 35.3535 14.5C36.2291 16.5278 36.6668 18.6945 36.6668 21C36.6668 23.3056 36.2291 25.4722 35.3535 27.5C34.4791 29.5278 33.2918 31.2917 31.7918 32.7917C30.2918 34.2917 28.5279 35.4789 26.5002 36.3533C24.4724 37.2289 22.3057 37.6667 20.0002 37.6667Z" fill="#262626"/>
</svg>
