<svg width="25" height="24" viewBox="0 0 25 24" fill="none" xmlns="http://www.w3.org/2000/svg">
<path d="M12.053 12C12.6054 12 13.0785 11.804 13.4722 11.412C13.8653 11.0207 14.0618 10.55 14.0618 10C14.0618 9.45 13.8653 8.979 13.4722 8.587C13.0785 8.19567 12.6054 8 12.053 8C11.5005 8 11.0278 8.19567 10.6347 8.587C10.241 8.979 10.0441 9.45 10.0441 10C10.0441 10.55 10.241 11.0207 10.6347 11.412C11.0278 11.804 11.5005 12 12.053 12ZM12.053 19.35C14.0953 17.4833 15.6103 15.7873 16.598 14.262C17.5857 12.7373 18.0795 11.3833 18.0795 10.2C18.0795 8.38333 17.4976 6.89567 16.3338 5.737C15.1707 4.579 13.7438 4 12.053 4C10.3622 4 8.93491 4.579 7.77111 5.737C6.60799 6.89567 6.02643 8.38333 6.02643 10.2C6.02643 11.3833 6.52027 12.7373 7.50795 14.262C8.49564 15.7873 10.0106 17.4833 12.053 19.35ZM12.053 21.625C11.9191 21.625 11.7851 21.6 11.6512 21.55C11.5173 21.5 11.4001 21.4333 11.2997 21.35C8.85556 19.2 7.03085 17.2043 5.82554 15.363C4.62023 13.521 4.01758 11.8 4.01758 10.2C4.01758 7.7 4.82547 5.70833 6.44126 4.225C8.05637 2.74167 9.92694 2 12.053 2C14.179 2 16.0496 2.74167 17.6647 4.225C19.2805 5.70833 20.0884 7.7 20.0884 10.2C20.0884 11.8 19.4857 13.521 18.2804 15.363C17.0751 17.2043 15.2504 19.2 12.8063 21.35C12.7059 21.4333 12.5887 21.5 12.4547 21.55C12.3208 21.6 12.1869 21.625 12.053 21.625Z" fill="#0CA552"/>
</svg>
