<svg width="20" height="21" viewBox="0 0 20 21" fill="none" xmlns="http://www.w3.org/2000/svg">
<path d="M18.0682 20.1257L11.7045 13.753C11.1364 14.2082 10.483 14.5685 9.74432 14.8341C9.00568 15.0996 8.2197 15.2324 7.38636 15.2324C5.32197 15.2324 3.575 14.5166 2.14545 13.085C0.715152 11.6526 0 9.90281 0 7.83548C0 5.76815 0.715152 4.01832 2.14545 2.58598C3.575 1.1544 5.32197 0.438614 7.38636 0.438614C9.45076 0.438614 11.1981 1.1544 12.6284 2.58598C14.058 4.01832 14.7727 5.76815 14.7727 7.83548C14.7727 8.67 14.6402 9.4571 14.375 10.1968C14.1098 10.9365 13.75 11.5908 13.2955 12.1598L19.6875 18.5609C19.8958 18.7696 20 19.0256 20 19.3291C20 19.6325 19.8864 19.8981 19.6591 20.1257C19.4508 20.3343 19.1856 20.4386 18.8636 20.4386C18.5417 20.4386 18.2765 20.3343 18.0682 20.1257ZM7.38636 12.9564C8.80682 12.9564 10.0144 12.4587 11.0091 11.4634C12.003 10.4673 12.5 9.25796 12.5 7.83548C12.5 6.41301 12.003 5.20372 11.0091 4.2076C10.0144 3.21225 8.80682 2.71457 7.38636 2.71457C5.96591 2.71457 4.75833 3.21225 3.76364 4.2076C2.7697 5.20372 2.27273 6.41301 2.27273 7.83548C2.27273 9.25796 2.7697 10.4673 3.76364 11.4634C4.75833 12.4587 5.96591 12.9564 7.38636 12.9564Z" fill="#999999"/>
</svg>
