<svg width="121" height="32" viewBox="0 0 121 32" fill="none" xmlns="http://www.w3.org/2000/svg">
<path d="M24 29.3333C22.8889 29.3333 21.9444 28.9444 21.1667 28.1667C20.3889 27.3889 20 26.4444 20 25.3333C20 25.1778 20.0111 25.0164 20.0333 24.8493C20.0556 24.6831 20.0889 24.5333 20.1333 24.4L10.7333 18.9333C10.3556 19.2667 9.93333 19.5276 9.46667 19.716C9 19.9053 8.51111 20 8 20C6.88889 20 5.94444 19.6111 5.16667 18.8333C4.38889 18.0556 4 17.1111 4 16C4 14.8889 4.38889 13.9444 5.16667 13.1667C5.94444 12.3889 6.88889 12 8 12C8.51111 12 9 12.0942 9.46667 12.2827C9.93333 12.472 10.3556 12.7333 10.7333 13.0667L20.1333 7.6C20.0889 7.46667 20.0556 7.31689 20.0333 7.15067C20.0111 6.98356 20 6.82223 20 6.66667C20 5.55556 20.3889 4.61112 21.1667 3.83334C21.9444 3.05556 22.8889 2.66667 24 2.66667C25.1111 2.66667 26.0556 3.05556 26.8333 3.83334C27.6111 4.61112 28 5.55556 28 6.66667C28 7.77778 27.6111 8.72223 26.8333 9.5C26.0556 10.2778 25.1111 10.6667 24 10.6667C23.4889 10.6667 23 10.572 22.5333 10.3827C22.0667 10.1942 21.6444 9.93334 21.2667 9.6L11.8667 15.0667C11.9111 15.2 11.9444 15.3498 11.9667 15.516C11.9889 15.6831 12 15.8444 12 16C12 16.1556 11.9889 16.3164 11.9667 16.4827C11.9444 16.6498 11.9111 16.8 11.8667 16.9333L21.2667 22.4C21.6444 22.0667 22.0667 21.8053 22.5333 21.616C23 21.4276 23.4889 21.3333 24 21.3333C25.1111 21.3333 26.0556 21.7222 26.8333 22.5C27.6111 23.2778 28 24.2222 28 25.3333C28 26.4444 27.6111 27.3889 26.8333 28.1667C26.0556 28.9444 25.1111 29.3333 24 29.3333Z" fill="#2C2C2C"/>
<path d="M46.3078 14.84C47.0945 14.9867 47.7411 15.38 48.2478 16.02C48.7545 16.66 49.0078 17.3933 49.0078 18.22C49.0078 18.9667 48.8211 19.6267 48.4478 20.2C48.0878 20.76 47.5611 21.2 46.8678 21.52C46.1745 21.84 45.3545 22 44.4078 22H38.3878V8.04H44.1478C45.0945 8.04 45.9078 8.19333 46.5878 8.5C47.2811 8.80667 47.8011 9.23333 48.1478 9.78C48.5078 10.3267 48.6878 10.9467 48.6878 11.64C48.6878 12.4533 48.4678 13.1333 48.0278 13.68C47.6011 14.2267 47.0278 14.6133 46.3078 14.84ZM41.1878 13.8H43.7478C44.4145 13.8 44.9278 13.6533 45.2878 13.36C45.6478 13.0533 45.8278 12.62 45.8278 12.06C45.8278 11.5 45.6478 11.0667 45.2878 10.76C44.9278 10.4533 44.4145 10.3 43.7478 10.3H41.1878V13.8ZM44.0078 19.72C44.6878 19.72 45.2145 19.56 45.5878 19.24C45.9745 18.92 46.1678 18.4667 46.1678 17.88C46.1678 17.28 45.9678 16.8133 45.5678 16.48C45.1678 16.1333 44.6278 15.96 43.9478 15.96H41.1878V19.72H44.0078ZM50.5194 16.42C50.5194 15.3 50.7394 14.3067 51.1794 13.44C51.6327 12.5733 52.2394 11.9067 52.9994 11.44C53.7727 10.9733 54.6327 10.74 55.5794 10.74C56.406 10.74 57.126 10.9067 57.7394 11.24C58.366 11.5733 58.866 11.9933 59.2394 12.5V10.92H62.0594V22H59.2394V20.38C58.8794 20.9 58.3794 21.3333 57.7394 21.68C57.1127 22.0133 56.386 22.18 55.5594 22.18C54.626 22.18 53.7727 21.94 52.9994 21.46C52.2394 20.98 51.6327 20.3067 51.1794 19.44C50.7394 18.56 50.5194 17.5533 50.5194 16.42ZM59.2394 16.46C59.2394 15.78 59.106 15.2 58.8394 14.72C58.5727 14.2267 58.2127 13.8533 57.7594 13.6C57.306 13.3333 56.8194 13.2 56.2994 13.2C55.7794 13.2 55.2994 13.3267 54.8594 13.58C54.4194 13.8333 54.0594 14.2067 53.7794 14.7C53.5127 15.18 53.3794 15.7533 53.3794 16.42C53.3794 17.0867 53.5127 17.6733 53.7794 18.18C54.0594 18.6733 54.4194 19.0533 54.8594 19.32C55.3127 19.5867 55.7927 19.72 56.2994 19.72C56.8194 19.72 57.306 19.5933 57.7594 19.34C58.2127 19.0733 58.5727 18.7 58.8394 18.22C59.106 17.7267 59.2394 17.14 59.2394 16.46ZM69.1341 10.74C69.9607 10.74 70.6874 10.9067 71.3141 11.24C71.9407 11.56 72.4341 11.98 72.7941 12.5V10.92H75.6141V22.08C75.6141 23.1067 75.4074 24.02 74.9941 24.82C74.5807 25.6333 73.9607 26.2733 73.1341 26.74C72.3074 27.22 71.3074 27.46 70.1341 27.46C68.5607 27.46 67.2674 27.0933 66.2541 26.36C65.2541 25.6267 64.6874 24.6267 64.5541 23.36H67.3341C67.4807 23.8667 67.7941 24.2667 68.2741 24.56C68.7674 24.8667 69.3607 25.02 70.0541 25.02C70.8674 25.02 71.5274 24.7733 72.0341 24.28C72.5407 23.8 72.7941 23.0667 72.7941 22.08V20.36C72.4341 20.88 71.9341 21.3133 71.2941 21.66C70.6674 22.0067 69.9474 22.18 69.1341 22.18C68.2007 22.18 67.3474 21.94 66.5741 21.46C65.8007 20.98 65.1874 20.3067 64.7341 19.44C64.2941 18.56 64.0741 17.5533 64.0741 16.42C64.0741 15.3 64.2941 14.3067 64.7341 13.44C65.1874 12.5733 65.7941 11.9067 66.5541 11.44C67.3274 10.9733 68.1874 10.74 69.1341 10.74ZM72.7941 16.46C72.7941 15.78 72.6607 15.2 72.3941 14.72C72.1274 14.2267 71.7674 13.8533 71.3141 13.6C70.8607 13.3333 70.3741 13.2 69.8541 13.2C69.3341 13.2 68.8541 13.3267 68.4141 13.58C67.9741 13.8333 67.6141 14.2067 67.3341 14.7C67.0674 15.18 66.9341 15.7533 66.9341 16.42C66.9341 17.0867 67.0674 17.6733 67.3341 18.18C67.6141 18.6733 67.9741 19.0533 68.4141 19.32C68.8674 19.5867 69.3474 19.72 69.8541 19.72C70.3741 19.72 70.8607 19.5933 71.3141 19.34C71.7674 19.0733 72.1274 18.7 72.3941 18.22C72.6607 17.7267 72.7941 17.14 72.7941 16.46ZM79.7688 9.6C79.2754 9.6 78.8621 9.44667 78.5288 9.14C78.2088 8.82 78.0488 8.42667 78.0488 7.96C78.0488 7.49333 78.2088 7.10667 78.5288 6.8C78.8621 6.48 79.2754 6.32 79.7688 6.32C80.2621 6.32 80.6688 6.48 80.9888 6.8C81.3221 7.10667 81.4888 7.49333 81.4888 7.96C81.4888 8.42667 81.3221 8.82 80.9888 9.14C80.6688 9.44667 80.2621 9.6 79.7688 9.6ZM81.1488 10.92V22H78.3488V10.92H81.1488ZM90.4752 22L86.7152 17.28V22H83.9152V7.2H86.7152V15.62L90.4352 10.92H94.0752L89.1952 16.48L94.1152 22H90.4752ZM94.8748 16.42C94.8748 15.3 95.0948 14.3067 95.5348 13.44C95.9882 12.5733 96.5948 11.9067 97.3548 11.44C98.1282 10.9733 98.9882 10.74 99.9348 10.74C100.762 10.74 101.482 10.9067 102.095 11.24C102.722 11.5733 103.222 11.9933 103.595 12.5V10.92H106.415V22H103.595V20.38C103.235 20.9 102.735 21.3333 102.095 21.68C101.468 22.0133 100.742 22.18 99.9148 22.18C98.9815 22.18 98.1282 21.94 97.3548 21.46C96.5948 20.98 95.9882 20.3067 95.5348 19.44C95.0948 18.56 94.8748 17.5533 94.8748 16.42ZM103.595 16.46C103.595 15.78 103.462 15.2 103.195 14.72C102.928 14.2267 102.568 13.8533 102.115 13.6C101.662 13.3333 101.175 13.2 100.655 13.2C100.135 13.2 99.6548 13.3267 99.2148 13.58C98.7748 13.8333 98.4148 14.2067 98.1348 14.7C97.8682 15.18 97.7348 15.7533 97.7348 16.42C97.7348 17.0867 97.8682 17.6733 98.1348 18.18C98.4148 18.6733 98.7748 19.0533 99.2148 19.32C99.6682 19.5867 100.148 19.72 100.655 19.72C101.175 19.72 101.662 19.5933 102.115 19.34C102.568 19.0733 102.928 18.7 103.195 18.22C103.462 17.7267 103.595 17.14 103.595 16.46ZM115.29 10.76C116.61 10.76 117.676 11.18 118.49 12.02C119.303 12.8467 119.71 14.0067 119.71 15.5V22H116.91V15.88C116.91 15 116.69 14.3267 116.25 13.86C115.81 13.38 115.21 13.14 114.45 13.14C113.676 13.14 113.063 13.38 112.61 13.86C112.17 14.3267 111.95 15 111.95 15.88V22H109.15V10.92H111.95V12.3C112.323 11.82 112.796 11.4467 113.37 11.18C113.956 10.9 114.596 10.76 115.29 10.76Z" fill="#262626"/>
</svg>
